<?xml version="1.0" encoding="utf-8"?>
<!-- Generator: Adobe Illustrator 24.0.1, SVG Export Plug-In . SVG Version: 6.00 Build 0)  -->
<svg version="1.1" id="Layer_1" xmlns="http://www.w3.org/2000/svg" xmlns:xlink="http://www.w3.org/1999/xlink" x="0px" y="0px"
	 viewBox="0 0 95.2 52.2" style="enable-background:new 0 0 95.2 52.2;" xml:space="preserve">
<path d="M95.2,25.7C94.9,11.1,84,0.2,69.6,0C62.2,0,33,0,25.6,0C11.2,0.2,0.3,11.1,0,25.7c0,0.1,0,0.3,0,0.4c0,0.1,0,0.3,0,0.4
	c0.3,14.6,11.2,25.5,25.6,25.7c7.3,0.1,36.6,0.1,43.9,0c14.4-0.1,25.3-11,25.6-25.7c0-0.1,0-0.3,0-0.4C95.2,26,95.2,25.8,95.2,25.7z
	 M47.6,36.6c-10,0-18.5,0-21.8,0c-5.9-0.1-10-4.2-10.2-10.3l0-0.4c0.2-6.1,4.3-10.2,10.2-10.3c3.3,0,11.9,0,21.8,0
	c10,0,18.5,0,21.8,0c5.9,0.1,10,4.2,10.2,10.3v0.4c-0.2,6.1-4.3,10.2-10.2,10.3C66.1,36.6,57.6,36.6,47.6,36.6z"/>
</svg>
