<?xml version="1.0" encoding="utf-8"?>
<!-- Generator: Adobe Illustrator 24.0.1, SVG Export Plug-In . SVG Version: 6.00 Build 0)  -->
<svg version="1.1" id="Layer_1" xmlns="http://www.w3.org/2000/svg" xmlns:xlink="http://www.w3.org/1999/xlink" x="0px" y="0px"
	 viewBox="0 0 135 40" style="enable-background:new 0 0 135 40;" xml:space="preserve">
<style type="text/css">
	.st0{clip-path:url(#SVGID_2_);}
	.st1{fill:#FFFFFF;stroke:#FFFFFF;stroke-width:0.2;stroke-miterlimit:10;}
	.st2{fill:#FFFFFF;}
	.st3{fill:url(#SVGID_3_);}
	.st4{fill:url(#SVGID_4_);}
	.st5{fill:url(#SVGID_5_);}
	.st6{fill:url(#SVGID_6_);}
	.st7{opacity:0.2;enable-background:new    ;}
	.st8{opacity:0.12;enable-background:new    ;}
	.st9{opacity:0.25;fill:#FFFFFF;enable-background:new    ;}
</style>
<g>
	<g>
		<g>
			<defs>
				<rect id="SVGID_1_" y="0" width="135" height="40"/>
			</defs>
			<clipPath id="SVGID_2_">
				<use xlink:href="#SVGID_1_"  style="overflow:visible;"/>
			</clipPath>
			<g class="st0">
				<rect x="0" y="0" width="135" height="40"/>
				<path class="st1" d="M47.4,10.2c0,0.4,0,0.7-0.2,1.1c-0.1,0.3-0.3,0.7-0.6,0.9c-0.3,0.3-0.6,0.5-1,0.7c-0.4,0.2-0.8,0.2-1.2,0.2
					c-0.6,0-1.2-0.2-1.7-0.5c-0.5-0.3-0.9-0.8-1.1-1.4c-0.2-0.6-0.3-1.2-0.2-1.8c0.1-0.6,0.4-1.2,0.9-1.6c0.3-0.3,0.6-0.5,1-0.7
					c0.4-0.2,0.8-0.2,1.2-0.2c0.4,0,0.8,0.1,1.2,0.2c0.4,0.1,0.7,0.4,0.9,0.7l-0.5,0.5c-0.2-0.2-0.5-0.4-0.7-0.5
					c-0.3-0.1-0.6-0.2-0.9-0.2c-0.3,0-0.6,0.1-0.9,0.2c-0.3,0.1-0.5,0.3-0.8,0.5c-0.2,0.2-0.4,0.5-0.5,0.8c-0.1,0.3-0.2,0.6-0.2,0.9
					c0,0.5,0.1,0.9,0.4,1.3c0.3,0.4,0.6,0.7,1,0.9c0.4,0.2,0.9,0.2,1.4,0.2c0.5-0.1,0.9-0.3,1.2-0.6c0.3-0.3,0.5-0.8,0.5-1.2h-2.2
					V9.8h2.9C47.4,9.9,47.4,10.1,47.4,10.2z M52,7.7h-2.7v1.9h2.5v0.7h-2.5v1.9H52V13h-3.5V7H52V7.7z M55.3,13h-0.8V7.7h-1.7V7H57
					v0.7h-1.7V13z M59.9,13V7h0.8v6H59.9z M64.1,13h-0.8V7.7h-1.7V7h4.1v0.7h-1.7V13z M73.6,12.2c-0.6,0.6-1.4,0.9-2.2,0.9
					c-0.8,0-1.6-0.3-2.2-0.9c-0.6-0.6-0.9-1.4-0.9-2.2c0-0.8,0.3-1.6,0.9-2.2c0.3-0.3,0.6-0.5,1-0.7c0.4-0.2,0.8-0.2,1.2-0.2
					c0.4,0,0.8,0.1,1.2,0.2c0.4,0.2,0.7,0.4,1,0.7c0.6,0.6,0.9,1.4,0.9,2.2C74.5,10.8,74.2,11.6,73.6,12.2z M69.8,11.7
					c0.4,0.4,1,0.7,1.6,0.7s1.2-0.2,1.6-0.7c0.4-0.5,0.7-1.1,0.7-1.7c0-0.6-0.2-1.2-0.7-1.7c-0.4-0.4-1-0.7-1.6-0.7
					s-1.2,0.2-1.6,0.7c-0.4,0.5-0.7,1.1-0.7,1.7C69.1,10.6,69.4,11.2,69.8,11.7z M75.6,13V7h0.9l2.9,4.7V7h0.8v6h-0.8l-3.1-4.9V13
					H75.6z"/>
				<path class="st2" d="M68.1,21.8c-0.8,0-1.7,0.3-2.4,0.7c-0.7,0.5-1.2,1.1-1.6,1.9c-0.3,0.8-0.4,1.6-0.2,2.5
					c0.2,0.8,0.6,1.6,1.2,2.2c0.6,0.6,1.4,1,2.2,1.2c0.8,0.2,1.7,0.1,2.5-0.2c0.8-0.3,1.4-0.9,1.9-1.6c0.5-0.7,0.7-1.5,0.7-2.4
					c0-0.6-0.1-1.1-0.3-1.6c-0.2-0.5-0.5-1-0.9-1.4c-0.4-0.4-0.9-0.7-1.4-0.9C69.3,21.8,68.7,21.7,68.1,21.8z M68.1,28.6
					c-0.5,0-1-0.1-1.5-0.3c-0.4-0.3-0.8-0.6-1-1.1c-0.2-0.5-0.3-1-0.2-1.5c0.1-0.5,0.3-1,0.7-1.4c0.4-0.4,0.8-0.6,1.3-0.8
					c0.5-0.1,1-0.1,1.5,0.1c0.5,0.2,0.9,0.5,1.2,0.9c0.3,0.4,0.4,0.9,0.5,1.5c0,0.3,0,0.7-0.1,1c-0.1,0.3-0.3,0.6-0.5,0.8
					c-0.2,0.2-0.5,0.4-0.8,0.6C68.8,28.5,68.5,28.6,68.1,28.6z M58.8,21.8c-0.8,0-1.7,0.3-2.4,0.7c-0.7,0.5-1.2,1.1-1.6,1.9
					c-0.3,0.8-0.4,1.6-0.2,2.5c0.2,0.8,0.6,1.6,1.2,2.2c0.6,0.6,1.4,1,2.2,1.2c0.8,0.2,1.7,0.1,2.5-0.2c0.8-0.3,1.4-0.9,1.9-1.6
					c0.5-0.7,0.7-1.5,0.7-2.4c0-0.6-0.1-1.1-0.3-1.6c-0.2-0.5-0.5-1-0.9-1.4c-0.4-0.4-0.9-0.7-1.4-0.9
					C59.9,21.8,59.4,21.7,58.8,21.8L58.8,21.8z M58.8,28.6c-0.5,0-1-0.1-1.5-0.3c-0.4-0.3-0.8-0.6-1-1.1c-0.2-0.5-0.3-1-0.2-1.5
					c0.1-0.5,0.3-1,0.7-1.4s0.8-0.6,1.3-0.8c0.5-0.1,1-0.1,1.5,0.1s0.9,0.5,1.2,0.9c0.3,0.4,0.5,0.9,0.5,1.5c0,0.3,0,0.7-0.1,1
					c-0.1,0.3-0.3,0.6-0.5,0.8c-0.2,0.2-0.5,0.4-0.8,0.6C59.5,28.5,59.1,28.6,58.8,28.6L58.8,28.6z M47.7,23.1v1.8h4.3
					c-0.1,0.8-0.4,1.6-1,2.3c-0.4,0.4-1,0.8-1.5,1c-0.6,0.2-1.2,0.3-1.8,0.3c-1.3,0-2.5-0.5-3.4-1.4c-0.9-0.9-1.4-2.1-1.4-3.4
					c0-1.3,0.5-2.5,1.4-3.4s2.1-1.4,3.4-1.4c1.2,0,2.4,0.4,3.3,1.3l1.3-1.3c-0.6-0.6-1.3-1.1-2.1-1.4c-0.8-0.3-1.6-0.5-2.5-0.5
					c-0.9,0-1.8,0.1-2.6,0.4c-0.8,0.3-1.6,0.8-2.2,1.4c-0.6,0.6-1.2,1.4-1.5,2.2s-0.5,1.7-0.5,2.6s0.2,1.8,0.5,2.6
					c0.3,0.8,0.9,1.6,1.5,2.2c0.6,0.6,1.4,1.1,2.2,1.4c0.8,0.3,1.7,0.5,2.6,0.4c0.9,0,1.7-0.1,2.5-0.4c0.8-0.3,1.5-0.8,2.1-1.4
					c1-1.2,1.6-2.7,1.6-4.2c0-0.4,0-0.8-0.1-1.1L47.7,23.1z M93.1,24.5c-0.3-0.8-0.7-1.4-1.4-1.9c-0.6-0.5-1.4-0.8-2.2-0.8
					c-0.5,0-1.1,0.1-1.6,0.3c-0.5,0.2-1,0.5-1.3,0.9c-0.4,0.4-0.7,0.9-0.8,1.4c-0.2,0.5-0.3,1.1-0.2,1.6c0,0.6,0.1,1.1,0.3,1.6
					c0.2,0.5,0.5,1,0.9,1.4c0.4,0.4,0.9,0.7,1.4,0.9c0.5,0.2,1.1,0.3,1.6,0.3c0.7,0,1.4-0.2,2-0.5c0.6-0.3,1.1-0.8,1.5-1.4l-1.4-1
					c-0.2,0.4-0.5,0.7-0.9,0.9c-0.4,0.2-0.8,0.3-1.2,0.3c-0.4,0-0.9-0.1-1.2-0.3c-0.4-0.2-0.7-0.6-0.8-1l5.7-2.3L93.1,24.5z
					 M87.2,25.9c0-0.3,0-0.6,0.1-0.9c0.1-0.3,0.3-0.6,0.5-0.8c0.2-0.2,0.5-0.4,0.7-0.6c0.3-0.1,0.6-0.2,0.9-0.2
					c0.3,0,0.6,0.1,0.9,0.2s0.5,0.4,0.7,0.7L87.2,25.9z M82.6,30h1.9V17.5h-1.9V30z M79.6,22.7L79.6,22.7c-0.4-0.3-0.7-0.6-1.1-0.7
					c-0.4-0.2-0.8-0.3-1.2-0.3c-1.1,0.1-2.1,0.5-2.9,1.3c-0.8,0.8-1.2,1.8-1.2,2.9c0,1.1,0.4,2.1,1.2,2.9c0.8,0.8,1.8,1.3,2.9,1.3
					c0.4,0,0.8-0.1,1.2-0.3c0.4-0.2,0.7-0.4,1-0.7h0.1v0.6c0,1.6-0.9,2.5-2.3,2.5c-0.5,0-0.9-0.2-1.3-0.4c-0.4-0.3-0.7-0.6-0.8-1.1
					l-1.6,0.7c0.3,0.7,0.8,1.4,1.5,1.8c0.7,0.4,1.5,0.7,2.3,0.7c2.2,0,4-1.3,4-4.4V22h-1.7V22.7z M77.4,28.6
					c-0.6-0.1-1.2-0.4-1.7-0.8c-0.4-0.5-0.7-1.1-0.7-1.7c0-0.6,0.2-1.3,0.7-1.7c0.4-0.5,1-0.8,1.7-0.8c0.3,0,0.6,0.1,0.9,0.2
					c0.3,0.1,0.5,0.3,0.8,0.6c0.2,0.2,0.4,0.5,0.5,0.8c0.1,0.3,0.1,0.6,0.1,0.9c0,0.3,0,0.6-0.1,0.9c-0.1,0.3-0.3,0.6-0.5,0.8
					c-0.2,0.2-0.5,0.4-0.8,0.6C78.1,28.5,77.7,28.6,77.4,28.6L77.4,28.6z M101.8,17.5h-4.5V30h1.9v-4.7h2.6c0.5,0,1.1,0,1.6-0.2
					c0.5-0.2,1-0.5,1.4-0.8s0.7-0.8,0.9-1.3c0.2-0.5,0.3-1,0.3-1.6s-0.1-1.1-0.3-1.6c-0.2-0.5-0.5-0.9-0.9-1.3s-0.9-0.6-1.4-0.8
					C102.9,17.5,102.4,17.5,101.8,17.5L101.8,17.5z M101.8,23.5h-2.6v-4.3h2.7c0.6,0,1.1,0.2,1.5,0.6c0.4,0.4,0.6,0.9,0.6,1.5
					c0,0.6-0.2,1.1-0.6,1.5C103,23.3,102.4,23.5,101.8,23.5L101.8,23.5z M113.3,21.7c-0.7,0-1.4,0.1-1.9,0.5
					c-0.6,0.3-1.1,0.8-1.4,1.5l1.7,0.7c0.2-0.3,0.4-0.5,0.7-0.7c0.3-0.2,0.6-0.2,1-0.2c0.2,0,0.5,0,0.7,0.1c0.2,0.1,0.4,0.2,0.6,0.3
					c0.2,0.1,0.3,0.3,0.5,0.5c0.1,0.2,0.2,0.4,0.2,0.7v0.1c-0.6-0.3-1.3-0.5-2-0.5c-1.8,0-3.6,1-3.6,2.8c0,0.4,0.1,0.8,0.3,1.1
					c0.2,0.3,0.4,0.7,0.7,0.9c0.3,0.3,0.6,0.5,1,0.6c0.4,0.1,0.8,0.2,1.1,0.1c0.5,0,0.9-0.1,1.4-0.3c0.4-0.2,0.8-0.5,1-0.9h0.1v1
					h1.8v-4.8C117.2,23,115.5,21.7,113.3,21.7L113.3,21.7z M113.1,28.6c-0.6,0-1.5-0.3-1.5-1.1c0-1,1.1-1.3,2-1.3
					c0.6,0,1.2,0.1,1.7,0.4c-0.1,0.5-0.3,1-0.7,1.4C114.2,28.4,113.7,28.6,113.1,28.6L113.1,28.6z M123.7,22l-2.1,5.4h-0.1l-2.2-5.4
					h-2l3.3,7.6l-1.9,4.2h1.9l5.1-11.8H123.7z M106.9,30h1.9V17.5h-1.9V30z"/>
				
					<linearGradient id="SVGID_3_" gradientUnits="userSpaceOnUse" x1="21.8027" y1="31.1775" x2="5.0226" y2="14.3976" gradientTransform="matrix(1 0 0 -1 0 39.8898)">
					<stop  offset="0" style="stop-color:#00A0FF"/>
					<stop  offset="1.000000e-02" style="stop-color:#00A1FF"/>
					<stop  offset="0.26" style="stop-color:#00BEFF"/>
					<stop  offset="0.51" style="stop-color:#00D2FF"/>
					<stop  offset="0.76" style="stop-color:#00DFFF"/>
					<stop  offset="1" style="stop-color:#00E3FF"/>
				</linearGradient>
				<path class="st3" d="M10.4,7.5C10.1,7.9,9.9,8.4,10,8.9v22.1c0,0.5,0.1,1,0.5,1.4l0.1,0.1l12.4-12.4v-0.3L10.4,7.5L10.4,7.5z"/>
				
					<linearGradient id="SVGID_4_" gradientUnits="userSpaceOnUse" x1="33.8304" y1="19.8901" x2="9.6404" y2="19.8901" gradientTransform="matrix(1 0 0 -1 0 39.8898)">
					<stop  offset="0" style="stop-color:#FFE000"/>
					<stop  offset="0.41" style="stop-color:#FFBD00"/>
					<stop  offset="0.78" style="stop-color:#FFA500"/>
					<stop  offset="1" style="stop-color:#FF9C00"/>
				</linearGradient>
				<path class="st4" d="M27,24.3l-4.1-4.1v-0.3l4.1-4.1l0.1,0.1l4.9,2.8c1.4,0.8,1.4,2.1,0,2.9l-4.9,2.8L27,24.3z"/>
				
					<linearGradient id="SVGID_5_" gradientUnits="userSpaceOnUse" x1="24.8279" y1="17.5923" x2="2.0679" y2="-5.1577" gradientTransform="matrix(1 0 0 -1 0 39.8898)">
					<stop  offset="0" style="stop-color:#FF3A44"/>
					<stop  offset="1" style="stop-color:#C31162"/>
				</linearGradient>
				<path class="st5" d="M27.1,24.2L22.9,20L10.4,32.5c0.3,0.3,0.6,0.4,1,0.4c0.4,0,0.8-0.1,1.1-0.3L27.1,24.2"/>
				
					<linearGradient id="SVGID_6_" gradientUnits="userSpaceOnUse" x1="7.2972" y1="39.7077" x2="17.4572" y2="29.5477" gradientTransform="matrix(1 0 0 -1 0 39.8898)">
					<stop  offset="0" style="stop-color:#32A071"/>
					<stop  offset="7.000000e-02" style="stop-color:#2DA771"/>
					<stop  offset="0.48" style="stop-color:#15CF74"/>
					<stop  offset="0.8" style="stop-color:#06E775"/>
					<stop  offset="1" style="stop-color:#00F076"/>
				</linearGradient>
				<path class="st6" d="M27.1,15.8L12.5,7.5c-0.3-0.2-0.7-0.4-1.1-0.3c-0.4,0-0.7,0.2-1,0.4L22.9,20L27.1,15.8z"/>
				<path class="st7" d="M27,24.1l-14.5,8.3c-0.3,0.2-0.6,0.3-1,0.3c-0.4,0-0.7-0.1-1-0.3l-0.1,0.1l0.1,0.1c0.3,0.2,0.6,0.3,1,0.3
					s0.7-0.1,1-0.3l14.6-8.3L27,24.1z"/>
				<path class="st8" d="M10.4,32.3c-0.3-0.4-0.5-0.9-0.5-1.4v0.1c0,0.5,0.1,1,0.5,1.4V32.3L10.4,32.3z M32,21.3l-5,2.8l0.1,0.1
					l4.9-2.8c0.3-0.1,0.5-0.3,0.7-0.6c0.2-0.3,0.3-0.5,0.3-0.9c-0.1,0.3-0.2,0.5-0.3,0.8C32.5,21,32.3,21.2,32,21.3z"/>
				<path class="st9" d="M12.5,7.6L32,18.7c0.3,0.1,0.5,0.3,0.7,0.5c0.2,0.2,0.3,0.5,0.3,0.8c0-0.3-0.1-0.6-0.3-0.9
					c-0.2-0.3-0.4-0.5-0.7-0.6L12.5,7.5C11.1,6.7,10,7.4,10,9v0.1C10,7.5,11.1,6.8,12.5,7.6z"/>
			</g>
		</g>
	</g>
</g>
</svg>
