<svg width="106" height="20" viewBox="0 0 106 20" fill="none" xmlns="http://www.w3.org/2000/svg">
<rect width="105.22" height="20" rx="4" fill="white"/>
<path fill-rule="evenodd" clip-rule="evenodd" d="M6.66634 4.66699C5.92996 4.66699 5.33301 5.26395 5.33301 6.00033V14.0003C5.33301 14.7367 5.92996 15.3337 6.66634 15.3337H13.333C14.0694 15.3337 14.6663 14.7367 14.6663 14.0003V12.1249C14.6663 12.0717 14.7257 12.0399 14.77 12.0694L17.6299 13.976C18.0729 14.2714 18.6663 13.9538 18.6663 13.4213V6.57934C18.6663 6.04687 18.0729 5.72928 17.6299 6.02464L14.77 7.93123C14.7257 7.96077 14.6663 7.92901 14.6663 7.87576V6.00033C14.6663 5.26395 14.0694 4.66699 13.333 4.66699H6.66634Z" fill="#707070"/>
<g clip-path="url(#clip0_2_3217)">
<path d="M31.7695 9.53516V9.93945C31.7695 10.5879 31.6816 11.1699 31.5059 11.6855C31.3301 12.2012 31.082 12.6406 30.7617 13.0039C30.4414 13.3633 30.0586 13.6387 29.6133 13.8301C29.1719 14.0215 28.6816 14.1172 28.1426 14.1172C27.6074 14.1172 27.1172 14.0215 26.6719 13.8301C26.2305 13.6387 25.8477 13.3633 25.5234 13.0039C25.1992 12.6406 24.9473 12.2012 24.7676 11.6855C24.5918 11.1699 24.5039 10.5879 24.5039 9.93945V9.53516C24.5039 8.88281 24.5918 8.30078 24.7676 7.78906C24.9434 7.27344 25.1914 6.83398 25.5117 6.4707C25.8359 6.10742 26.2188 5.83008 26.6602 5.63867C27.1055 5.44727 27.5957 5.35156 28.1309 5.35156C28.6699 5.35156 29.1602 5.44727 29.6016 5.63867C30.0469 5.83008 30.4297 6.10742 30.75 6.4707C31.0742 6.83398 31.3242 7.27344 31.5 7.78906C31.6797 8.30078 31.7695 8.88281 31.7695 9.53516ZM29.9941 9.93945V9.52344C29.9941 9.07031 29.9531 8.67188 29.8711 8.32812C29.7891 7.98438 29.668 7.69531 29.5078 7.46094C29.3477 7.22656 29.1523 7.05078 28.9219 6.93359C28.6914 6.8125 28.4277 6.75195 28.1309 6.75195C27.834 6.75195 27.5703 6.8125 27.3398 6.93359C27.1133 7.05078 26.9199 7.22656 26.7598 7.46094C26.6035 7.69531 26.4844 7.98438 26.4023 8.32812C26.3203 8.67188 26.2793 9.07031 26.2793 9.52344V9.93945C26.2793 10.3887 26.3203 10.7871 26.4023 11.1348C26.4844 11.4785 26.6055 11.7695 26.7656 12.0078C26.9258 12.2422 27.1211 12.4199 27.3516 12.541C27.582 12.6621 27.8457 12.7227 28.1426 12.7227C28.4395 12.7227 28.7031 12.6621 28.9336 12.541C29.1641 12.4199 29.3574 12.2422 29.5137 12.0078C29.6699 11.7695 29.7891 11.4785 29.8711 11.1348C29.9531 10.7871 29.9941 10.3887 29.9941 9.93945ZM34.582 9.01367V14H32.8945V7.66016H34.4766L34.582 9.01367ZM34.3359 10.6074H33.8789C33.8789 10.1387 33.9395 9.7168 34.0605 9.3418C34.1816 8.96289 34.3516 8.64062 34.5703 8.375C34.7891 8.10547 35.0488 7.90039 35.3496 7.75977C35.6543 7.61523 35.9941 7.54297 36.3691 7.54297C36.666 7.54297 36.9375 7.58594 37.1836 7.67188C37.4297 7.75781 37.6406 7.89453 37.8164 8.08203C37.9961 8.26953 38.1328 8.51758 38.2266 8.82617C38.3242 9.13477 38.373 9.51172 38.373 9.95703V14H36.6738V9.95117C36.6738 9.66992 36.6348 9.45117 36.5566 9.29492C36.4785 9.13867 36.3633 9.0293 36.2109 8.9668C36.0625 8.90039 35.8789 8.86719 35.6602 8.86719C35.4336 8.86719 35.2363 8.91211 35.0684 9.00195C34.9043 9.0918 34.7676 9.2168 34.6582 9.37695C34.5527 9.5332 34.4727 9.7168 34.418 9.92773C34.3633 10.1387 34.3359 10.3652 34.3359 10.6074ZM41.4375 5V14H39.7441V5H41.4375ZM44.6133 7.66016V14H42.9199V7.66016H44.6133ZM42.8145 6.00781C42.8145 5.76172 42.9004 5.55859 43.0723 5.39844C43.2441 5.23828 43.4746 5.1582 43.7637 5.1582C44.0488 5.1582 44.2773 5.23828 44.4492 5.39844C44.625 5.55859 44.7129 5.76172 44.7129 6.00781C44.7129 6.25391 44.625 6.45703 44.4492 6.61719C44.2773 6.77734 44.0488 6.85742 43.7637 6.85742C43.4746 6.85742 43.2441 6.77734 43.0723 6.61719C42.9004 6.45703 42.8145 6.25391 42.8145 6.00781ZM47.6602 9.01367V14H45.9727V7.66016H47.5547L47.6602 9.01367ZM47.4141 10.6074H46.957C46.957 10.1387 47.0176 9.7168 47.1387 9.3418C47.2598 8.96289 47.4297 8.64062 47.6484 8.375C47.8672 8.10547 48.127 7.90039 48.4277 7.75977C48.7324 7.61523 49.0723 7.54297 49.4473 7.54297C49.7441 7.54297 50.0156 7.58594 50.2617 7.67188C50.5078 7.75781 50.7188 7.89453 50.8945 8.08203C51.0742 8.26953 51.2109 8.51758 51.3047 8.82617C51.4023 9.13477 51.4512 9.51172 51.4512 9.95703V14H49.752V9.95117C49.752 9.66992 49.7129 9.45117 49.6348 9.29492C49.5566 9.13867 49.4414 9.0293 49.2891 8.9668C49.1406 8.90039 48.957 8.86719 48.7383 8.86719C48.5117 8.86719 48.3145 8.91211 48.1465 9.00195C47.9824 9.0918 47.8457 9.2168 47.7363 9.37695C47.6309 9.5332 47.5508 9.7168 47.4961 9.92773C47.4414 10.1387 47.4141 10.3652 47.4141 10.6074ZM55.6523 14.1172C55.1602 14.1172 54.7188 14.0391 54.3281 13.8828C53.9375 13.7227 53.6055 13.502 53.332 13.2207C53.0625 12.9395 52.8555 12.6133 52.7109 12.2422C52.5664 11.8672 52.4941 11.4688 52.4941 11.0469V10.8125C52.4941 10.332 52.5625 9.89258 52.6992 9.49414C52.8359 9.0957 53.0312 8.75 53.2852 8.45703C53.543 8.16406 53.8555 7.93945 54.2227 7.7832C54.5898 7.62305 55.0039 7.54297 55.4648 7.54297C55.9141 7.54297 56.3125 7.61719 56.6602 7.76562C57.0078 7.91406 57.2988 8.125 57.5332 8.39844C57.7715 8.67188 57.9512 9 58.0723 9.38281C58.1934 9.76172 58.2539 10.1836 58.2539 10.6484V11.3516H53.2148V10.2266H56.5957V10.0977C56.5957 9.86328 56.5527 9.6543 56.4668 9.4707C56.3848 9.2832 56.2598 9.13477 56.0918 9.02539C55.9238 8.91602 55.709 8.86133 55.4473 8.86133C55.2246 8.86133 55.0332 8.91016 54.873 9.00781C54.7129 9.10547 54.582 9.24219 54.4805 9.41797C54.3828 9.59375 54.3086 9.80078 54.2578 10.0391C54.2109 10.2734 54.1875 10.5312 54.1875 10.8125V11.0469C54.1875 11.3008 54.2227 11.5352 54.293 11.75C54.3672 11.9648 54.4707 12.1504 54.6035 12.3066C54.7402 12.4629 54.9043 12.584 55.0957 12.6699C55.291 12.7559 55.5117 12.7988 55.7578 12.7988C56.0625 12.7988 56.3457 12.7402 56.6074 12.623C56.873 12.502 57.1016 12.3203 57.293 12.0781L58.1133 12.9688C57.9805 13.1602 57.7988 13.3438 57.5684 13.5195C57.3418 13.6953 57.0684 13.8398 56.748 13.9531C56.4277 14.0625 56.0625 14.1172 55.6523 14.1172ZM68.0332 12.6289V14H63.4922V12.6289H68.0332ZM64.0664 5.46875V14H62.3086V5.46875H64.0664ZM67.4414 8.94336V10.2793H63.4922V8.94336H67.4414ZM68.0273 5.46875V6.8457H63.4922V5.46875H68.0273ZM70.957 12.7695L72.3633 7.66016H74.127L71.9883 14H70.9219L70.957 12.7695ZM69.9902 7.66016L71.4023 12.7754L71.4316 14H70.3594L68.2207 7.66016H69.9902ZM77.7188 14.1172C77.2266 14.1172 76.7852 14.0391 76.3945 13.8828C76.0039 13.7227 75.6719 13.502 75.3984 13.2207C75.1289 12.9395 74.9219 12.6133 74.7773 12.2422C74.6328 11.8672 74.5605 11.4688 74.5605 11.0469V10.8125C74.5605 10.332 74.6289 9.89258 74.7656 9.49414C74.9023 9.0957 75.0977 8.75 75.3516 8.45703C75.6094 8.16406 75.9219 7.93945 76.2891 7.7832C76.6562 7.62305 77.0703 7.54297 77.5312 7.54297C77.9805 7.54297 78.3789 7.61719 78.7266 7.76562C79.0742 7.91406 79.3652 8.125 79.5996 8.39844C79.8379 8.67188 80.0176 9 80.1387 9.38281C80.2598 9.76172 80.3203 10.1836 80.3203 10.6484V11.3516H75.2812V10.2266H78.6621V10.0977C78.6621 9.86328 78.6191 9.6543 78.5332 9.4707C78.4512 9.2832 78.3262 9.13477 78.1582 9.02539C77.9902 8.91602 77.7754 8.86133 77.5137 8.86133C77.291 8.86133 77.0996 8.91016 76.9395 9.00781C76.7793 9.10547 76.6484 9.24219 76.5469 9.41797C76.4492 9.59375 76.375 9.80078 76.3242 10.0391C76.2773 10.2734 76.2539 10.5312 76.2539 10.8125V11.0469C76.2539 11.3008 76.2891 11.5352 76.3594 11.75C76.4336 11.9648 76.5371 12.1504 76.6699 12.3066C76.8066 12.4629 76.9707 12.584 77.1621 12.6699C77.3574 12.7559 77.5781 12.7988 77.8242 12.7988C78.1289 12.7988 78.4121 12.7402 78.6738 12.623C78.9395 12.502 79.168 12.3203 79.3594 12.0781L80.1797 12.9688C80.0469 13.1602 79.8652 13.3438 79.6348 13.5195C79.4082 13.6953 79.1348 13.8398 78.8145 13.9531C78.4941 14.0625 78.1289 14.1172 77.7188 14.1172ZM82.9336 9.01367V14H81.2461V7.66016H82.8281L82.9336 9.01367ZM82.6875 10.6074H82.2305C82.2305 10.1387 82.291 9.7168 82.4121 9.3418C82.5332 8.96289 82.7031 8.64062 82.9219 8.375C83.1406 8.10547 83.4004 7.90039 83.7012 7.75977C84.0059 7.61523 84.3457 7.54297 84.7207 7.54297C85.0176 7.54297 85.2891 7.58594 85.5352 7.67188C85.7812 7.75781 85.9922 7.89453 86.168 8.08203C86.3477 8.26953 86.4844 8.51758 86.5781 8.82617C86.6758 9.13477 86.7246 9.51172 86.7246 9.95703V14H85.0254V9.95117C85.0254 9.66992 84.9863 9.45117 84.9082 9.29492C84.8301 9.13867 84.7148 9.0293 84.5625 8.9668C84.4141 8.90039 84.2305 8.86719 84.0117 8.86719C83.7852 8.86719 83.5879 8.91211 83.4199 9.00195C83.2559 9.0918 83.1191 9.2168 83.0098 9.37695C82.9043 9.5332 82.8242 9.7168 82.7695 9.92773C82.7148 10.1387 82.6875 10.3652 82.6875 10.6074ZM91.1133 7.66016V8.85547H87.4219V7.66016H91.1133ZM88.3359 6.0957H90.0234V12.0898C90.0234 12.2734 90.0469 12.4141 90.0938 12.5117C90.1445 12.6094 90.2188 12.6777 90.3164 12.7168C90.4141 12.752 90.5371 12.7695 90.6855 12.7695C90.791 12.7695 90.8848 12.7656 90.9668 12.7578C91.0527 12.7461 91.125 12.7344 91.1836 12.7227L91.1895 13.9648C91.0449 14.0117 90.8887 14.0488 90.7207 14.0762C90.5527 14.1035 90.3672 14.1172 90.1641 14.1172C89.793 14.1172 89.4688 14.0566 89.1914 13.9355C88.918 13.8105 88.707 13.6113 88.5586 13.3379C88.4102 13.0645 88.3359 12.7051 88.3359 12.2598V6.0957Z" fill="#707070"/>
</g>
<defs>
<clipPath id="clip0_2_3217">
<rect width="73.22" height="16" fill="white" transform="translate(24 2)"/>
</clipPath>
</defs>
</svg>
